<?xml version="1.0" encoding="UTF-8" standalone="no"?>
<svg width="254px" height="241px" viewBox="0 0 254 241" version="1.1" xmlns="http://www.w3.org/2000/svg" xmlns:xlink="http://www.w3.org/1999/xlink" xmlns:sketch="http://www.bohemiancoding.com/sketch/ns">
    <!-- Generator: Sketch 3.1 (8751) - http://www.bohemiancoding.com/sketch -->
    <title>test 2</title>
    <desc>Created with Sketch.</desc>
    <defs></defs>
    <g id="Page-1" stroke="none" stroke-width="1" fill="none" fill-rule="evenodd" sketch:type="MSPage">
        <g id="Group" sketch:type="MSLayerGroup">
            <g id="test-2">
                <g></g>
            </g>
            <g transform="translate(0.000000, 15.000000)" sketch:type="MSShapeGroup">
                <g>
                    <path d="M13.0552414,198.702782 C12.5402967,198.090549 13.0825764,196.741542 14.6820804,194.655762 C16.2815844,192.569982 18.5179937,190.231626 21.3913084,187.640692 C19.9613704,186.665586 18.7314574,185.565796 17.7015694,184.341322 C16.2854727,182.657676 15.3155514,181.012539 14.7918054,179.405912 C14.2680594,177.799286 14.3378141,176.717046 15.0010694,176.159192 L19.8989544,172.039632 L15.7794004,167.141752 L25.5751704,158.902642 C33.6362731,152.122542 41.8460891,148.004959 50.2046184,146.549892 L135.381895,74.9082842 C137.825109,73.4631169 140.928112,71.6372286 144.690905,69.4306192 C148.453705,67.2240099 150.807632,65.8539386 151.752685,65.3204052 C156.937112,62.2665306 161.632552,60.0812769 165.839005,58.7646442 C170.045459,57.4480122 173.194689,56.8681519 175.286695,57.0250632 C177.378702,57.1819752 178.810915,57.7196079 179.583335,58.6379612 C180.355749,59.5563146 180.640015,61.0594672 180.436135,63.1474192 C180.232262,65.2353719 179.121355,68.2386652 177.103415,72.1572992 C175.085469,76.0759326 172.127962,80.3274812 168.230895,84.9119452 C167.543322,85.7515966 165.790165,87.8359429 162.971425,91.1649842 C160.152692,94.4940256 157.822105,97.2382672 155.979665,99.3977092 L70.8023864,171.039322 C67.9365957,179.024902 62.4731491,186.407739 54.4120464,193.187832 L44.6162764,201.426942 L40.4967224,196.529062 L35.5988374,200.648612 C34.9355827,201.206466 33.8573957,201.089746 32.3642764,200.298452 C30.8711577,199.507152 29.4165501,198.269679 28.0004534,196.586032 C26.9705647,195.361559 26.0977891,193.961386 25.3821264,192.385512 C22.3371631,194.772372 19.6501774,196.575026 17.3211694,197.793472 C14.9921614,199.011919 13.5701854,199.315022 13.0552414,198.702782 L13.0552414,198.702782 Z M53.2225804,196.278982 L55.4419354,194.412312 C63.4520181,187.675126 69.0430137,180.185006 72.2149224,171.941952 L149.892315,106.608406 C140.451709,117.85906 130.535712,129.683785 120.144325,142.08258 C117.236205,144.528567 114.868542,147.565331 113.041335,151.192872 C111.214122,154.820419 110.126695,157.825739 109.779055,160.208832 L109.181065,163.847842 L105.678565,204.426322 C105.467772,206.868542 104.634852,209.529132 103.179805,212.408092 C101.724759,215.287052 99.8492954,217.692052 97.5534154,219.623092 L90.2065844,225.802422 L53.2225804,196.278982 Z M22.3259284,159.544842 L-0.423596498,118.048951 L6.9232314,111.869621 C9.27013407,109.895669 11.9736817,108.449314 15.0338744,107.530558 C18.0940664,106.611803 20.8452741,106.257824 23.2874974,106.468622 L63.8659714,109.971113 C64.2416981,110.00354 64.7475941,110.035377 65.3836594,110.066623 C66.0197247,110.097863 67.2912624,110.030181 69.1982724,109.863575 C71.1052824,109.696967 72.9647327,109.396136 74.7766234,108.96108 C76.5885147,108.526026 78.6508567,107.793207 80.9636494,106.762624 C83.2764427,105.732042 85.3511927,104.444334 87.1878994,102.899501 L127.234775,79.6700392 L49.5573774,145.00358 C40.8927301,146.716122 32.5553651,150.940986 24.5452824,157.678172 L22.3259284,159.544842 L22.3259284,159.544842 Z M152.061815,93.8074982 L160.191745,90.8895712 C161.601305,85.5226119 160.718339,80.9514056 157.542845,77.1759522 C154.367359,73.4004996 150.015059,71.7473106 144.485945,72.2163852 L140.218105,79.7260782 C144.466979,79.2884482 147.792952,80.4981832 150.196025,83.3552832 C152.599092,86.2123826 153.221022,89.6964542 152.061815,93.8074982 Z M66.9422783,133 L53.5764035,143.436393 L75.2105287,167 L88.5764035,156.563607 L66.9422783,133 Z M94.1350376,109.941676 L114.158028,134.923249 L100.411577,145.941172 L80.388587,120.959599 L94.1350376,109.941676 Z M120.135038,87.9416762 L140.158028,112.923249 L126.411577,123.941172 L106.388587,98.9595992 L120.135038,87.9416762 Z" id="path3041" fill="#FFFFFF"></path>
                    <path d="M141.542969,73.2714844 C137.815541,75.9460257 132.451172,81.1855469 132.451172,81.1855469 L150.511719,99.6542969 C150.511719,99.6542969 155.794655,95.0965702 158.955078,92.2675781 C159.888971,91.4316218 161.27671,90.1684545 162.686353,88.8793894 C165.305373,86.4843933 168,84 168,84 L150.511719,68.2265625 C150.511719,68.2265625 143.835723,71.6263642 141.542969,73.2714844 Z" id="Rectangle-1" stroke="#FFFFFF" fill="#FFFFFF"></path>
                    <path d="M178.951819,57.242889 C201.250589,48.5982325 176.473089,-7.848702 171.115089,6.439293" id="path4123" stroke="#FFFFFF" stroke-width="2.9000001"></path>
                    <path d="M179.848069,58.946522 C184.258399,49.7091101 235.697989,35.4691899 218.491239,63" id="path4125" stroke="#FFFFFF" stroke-width="3"></path>
                    <path d="M170.949006,3.57307947 C172.215716,28.710482 149.263166,-11.9168045 170.949006,3.57307947 L170.949006,3.57307947 Z" id="path4127" stroke="#FFFFFF" stroke-width="2.29999995"></path>
                    <path d="M216.837214,60.0858567 C216.751914,63.3212287 216.390184,65.5651087 220.080004,66.5714217 C235.242094,70.7065397 222.314144,51.5640947 217.107454,61.9774797" id="path4129" stroke="#FFFFFF" stroke-width="2.5"></path>
                </g>
            </g>
        </g>
    </g>
</svg>