<svg xmlns="http://www.w3.org/2000/svg" width="172px" height="28px" viewBox="0 0 172 28" version="1.1"><title>Rectangle 8 + Rectangle 8</title><desc>Created with Sketch.</desc><g stroke="none" stroke-width="1" fill="none" fill-rule="evenodd"><g transform="translate(-40.000000, -82.000000)" class="svg-needs-fill"><g transform="translate(40.000000, 82.000000)"><path d="M4.26325641e-14 0L4.26325641e-14 27.0939606 164.990643 27.0939606C168.867791 27.0939606 172 23.9622017 172 20.0989813L172 6.9949793C172 3.13448997 168.861804 0 164.990643 0L4.26325641e-14 0ZM164.990643 3C167.205202 3 169 4.7916 169 6.9949793L169 20.0989813C169 22.3064289 167.209851 24.0939606 164.990643 24.0939606L3 24 3 3 164.990643 3Z"/><g transform="translate(147.000000, 6.000000)"><path d="M10.6047437 11.077395C9.59359708 11.8615052 8.32401807 12.3282675 6.9454209 12.3282675 3.64463092 12.3282675 0.968811942 9.65244849 0.968811942 6.35165851 0.968811942 3.05086853 3.64463092 0.375049553 6.9454209 0.375049553 10.2462109 0.375049553 12.9220299 3.05086853 12.9220299 6.35165851 12.9220299 7.26156094 12.7186956 8.12397211 12.354987 8.89593202L17.4624135 13.6586842C17.4624135 13.6586842 17.5766368 15.1532905 17.3179164 15.4307342 16.9425866 15.8332262 15.5602627 15.6984912 15.5602627 15.6984912L10.6047437 11.077395 10.6047437 11.077395ZM6.9454209 10.3360645C9.14594755 10.3360645 10.9298269 8.55218516 10.9298269 6.35165851 10.9298269 4.15113185 9.14594755 2.36725254 6.9454209 2.36725254 4.74489424 2.36725254 2.96101493 4.15113185 2.96101493 6.35165851 2.96101493 8.55218516 4.74489424 10.3360645 6.9454209 10.3360645Z"/></g><path d="M138 2.5L138 25.5 138 27 141 27 141 25.5 141 2.5 141 1 138 1 138 2.5 138 2.5Z"/></g></g></g></svg>