<?xml version="1.0" encoding="UTF-8" standalone="no"?>
<svg width="69px" height="69px" viewBox="0 0 69 69" version="1.1" xmlns="http://www.w3.org/2000/svg" xmlns:xlink="http://www.w3.org/1999/xlink" xmlns:sketch="http://www.bohemiancoding.com/sketch/ns">
    <!-- Generator: Sketch 3.2.2 (9983) - http://www.bohemiancoding.com/sketch -->
    <title>Oval 1 + Rectangle 1 + Rectangle 2 + D</title>
    <desc>Created with Sketch.</desc>
    <defs></defs>
    <g id="Page-1" stroke="none" stroke-width="1" fill="none" fill-rule="evenodd" sketch:type="MSPage">
        <g id="Oval-1-+-Rectangle-1-+-Rectangle-2-+-D" sketch:type="MSLayerGroup">
            <path d="M34.5,69 C53.5538239,69 69,53.5538239 69,34.5 C69,15.4461761 53.5538239,0 34.5,0 C15.4461761,0 0,15.4461761 0,34.5 C0,53.5538239 15.4461761,69 34.5,69 Z M56.54,43.38 C55.8333298,45.1533422 54.8400064,46.6799936 53.56,47.96 C52.2799936,49.2400064 50.740009,50.2333298 48.94,50.94 C47.139991,51.6466702 45.1466776,52 42.96,52 L31.92,52 L31.92,23.08 L42.96,23.08 C45.1466776,23.08 47.139991,23.4366631 48.94,24.15 C50.740009,24.8633369 52.2799936,25.8566603 53.56,27.13 C54.8400064,28.4033397 55.8333298,29.9266578 56.54,31.7 C57.2466702,33.4733422 57.6,35.4199894 57.6,37.54 C57.6,39.6600106 57.2466702,41.6066578 56.54,43.38 Z M52.1,37.54 C52.1,35.9533254 51.8866688,34.5300063 51.46,33.27 C51.0333312,32.0099937 50.4266706,30.9433377 49.64,30.07 C48.8533294,29.1966623 47.8966723,28.526669 46.77,28.06 C45.6433277,27.593331 44.3733404,27.36 42.96,27.36 L37.34,27.36 L37.34,47.72 L42.96,47.72 C44.3733404,47.72 45.6433277,47.486669 46.77,47.02 C47.8966723,46.553331 48.8533294,45.8833377 49.64,45.01 C50.4266706,44.1366623 51.0333312,43.0700063 51.46,41.81 C51.8866688,40.5499937 52.1,39.1266746 52.1,37.54 Z M20,23.1000004 L26,23.1000004 L26,52.0467649 L20,52.0467649 L20,23.1000004 Z M20,13 L26,13 L26,18 L20,18 L20,13 Z" id="Oval-1" fill="#C4C4C4" sketch:type="MSShapeGroup"></path>
            <g id="Rectangle-1-+-Rectangle-2-+-D" transform="translate(20.000000, 13.000000)"></g>
        </g>
    </g>
</svg>