<?xml version="1.0" encoding="UTF-8" standalone="no"?>
<svg width="69px" height="69px" viewBox="0 0 69 69" version="1.1" xmlns="http://www.w3.org/2000/svg" xmlns:xlink="http://www.w3.org/1999/xlink" xmlns:sketch="http://www.bohemiancoding.com/sketch/ns">
    <!-- Generator: Sketch 3.2.2 (9983) - http://www.bohemiancoding.com/sketch -->
    <title>Oval 1 + Rectangle 1 + Rectangle 2 + D</title>
    <desc>Created with Sketch.</desc>
    <defs></defs>
    <g id="Page-1" stroke="none" stroke-width="1" fill="none" fill-rule="evenodd" sketch:type="MSPage">
        <g id="Oval-1-+-Rectangle-1-+-Rectangle-2-+-D" sketch:type="MSLayerGroup">
            <path d="M34.5,69 C53.5538239,69 69,53.5538239 69,34.5 C69,15.4461761 53.5538239,0 34.5,0 C15.4461761,0 0,15.4461761 0,34.5 C0,53.5538239 15.4461761,69 34.5,69 Z" id="Oval-1" fill="#C4C4C4" sketch:type="MSShapeGroup"></path>
            <g id="Rectangle-1-+-Rectangle-2-+-D" transform="translate(20.000000, 13.000000)" fill="#FFFFFF" sketch:type="MSShapeGroup">
                <rect id="Rectangle-1" x="0" y="0" width="6" height="5"></rect>
                <rect id="Rectangle-2" x="0" y="10.1000004" width="6" height="28.9467645"></rect>
                <path d="M36.54,30.38 C35.8333298,32.1533422 34.8400064,33.6799936 33.56,34.96 C32.2799936,36.2400064 30.740009,37.2333298 28.94,37.94 C27.139991,38.6466702 25.1466776,39 22.96,39 L11.92,39 L11.92,10.08 L22.96,10.08 C25.1466776,10.08 27.139991,10.4366631 28.94,11.15 C30.740009,11.8633369 32.2799936,12.8566603 33.56,14.13 C34.8400064,15.4033397 35.8333298,16.9266578 36.54,18.7 C37.2466702,20.4733422 37.6,22.4199894 37.6,24.54 C37.6,26.6600106 37.2466702,28.6066578 36.54,30.38 Z M32.1,24.54 C32.1,22.9533254 31.8866688,21.5300063 31.46,20.27 C31.0333312,19.0099937 30.4266706,17.9433377 29.64,17.07 C28.8533294,16.1966623 27.8966723,15.526669 26.77,15.06 C25.6433277,14.593331 24.3733404,14.36 22.96,14.36 L17.34,14.36 L17.34,34.72 L22.96,34.72 C24.3733404,34.72 25.6433277,34.486669 26.77,34.02 C27.8966723,33.553331 28.8533294,32.8833377 29.64,32.01 C30.4266706,31.1366623 31.0333312,30.0700063 31.46,28.81 C31.8866688,27.5499937 32.1,26.1266746 32.1,24.54 L32.1,24.54 Z" id="D"></path>
            </g>
        </g>
    </g>
</svg>