<?xml version="1.0" encoding="UTF-8" standalone="no"?>
<!-- Generator: Adobe Illustrator 15.0.0, SVG Export Plug-In . SVG Version: 6.00 Build 0)  -->
<!DOCTYPE svg  PUBLIC '-//W3C//DTD SVG 1.1//EN'  'http://www.w3.org/Graphics/SVG/1.1/DTD/svg11.dtd'>
<svg id="Layer_2" xmlns="http://www.w3.org/2000/svg" xml:space="preserve" height="180.33px" viewBox="0 0 156 180.333" width="156px" version="1.1" y="0px" x="0px" xmlns:xlink="http://www.w3.org/1999/xlink" enable-background="new 0 0 156 180.333">
<g fill="#231F20">
	<path d="m7.736 172.1c0.454 1.337 1.907 4.5 4.924 4.5 2.166 0 3.533-1.455 3.533-3.675 0-2.421-1.852-3.417-3.675-4.3-0.94-0.455-4.783-1.796-4.783-5.212 0-2.82 2.134-5.239 5.864-5.239 0.799 0 1.766 0.17 2.365 0.37 0.371 0.113 0.769 0.257 1.082 0.313 0.114 0.997 0.286 2.135 0.512 3.843l-0.711 0.085c-0.483-1.679-1.282-3.672-3.874-3.672-2.021 0-3.075 1.479-3.075 3.16 0 2.107 1.509 3.048 3.673 4.018 1.88 0.823 4.871 1.993 4.871 5.522 0 3.304-2.705 5.726-6.323 5.726-1.026 0-1.993-0.2-2.706-0.429-0.711-0.229-1.225-0.454-1.566-0.599-0.227-0.74-0.54-2.762-0.825-4.3l0.714-0.11"/>
	<path d="m22.201 167.97c0-1.707-0.057-1.736-1.937-1.964v-0.512c1.31-0.285 2.706-0.628 4.158-1.141v2.136c0.542-0.369 1.14-0.769 1.938-1.253 0.852-0.513 1.566-0.825 2.562-0.825 1.424 0 2.705 0.825 3.218 2.222 0.796-0.599 1.679-1.168 2.134-1.424 0.854-0.485 1.569-0.798 2.508-0.798 2.307 0 3.587 1.538 3.587 3.787v6.351c0 1.595 0.142 1.737 1.794 1.908v0.655h-6.039v-0.655c1.881-0.171 2.021-0.313 2.021-1.908v-5.468c0-1.651-0.539-3.075-2.646-3.075-0.998 0-2.107 0.455-3.161 1.367 0.028 0.313 0.055 0.54 0.055 0.796v6.38c0 1.595 0.144 1.737 1.824 1.908v0.655h-6.037v-0.655c1.852-0.171 1.994-0.313 1.994-1.908v-5.582c0-1.65-0.599-2.961-2.562-2.961-1.139 0-2.277 0.598-3.191 1.338v7.205c0 1.595 0.142 1.737 1.853 1.908v0.655h-6.182v-0.655c1.965-0.171 2.107-0.313 2.107-1.908v-6.58"/>
	<path d="m47.889 174.55c0 1.594 0.142 1.738 2.049 1.908v0.655h-6.292v-0.655c1.879-0.17 2.021-0.314 2.021-1.908v-6.579c0-1.707-0.056-1.735-1.937-1.964v-0.512c1.31-0.287 2.706-0.628 4.158-1.141v10.19m0.371-15.3c0 0.854-0.654 1.536-1.481 1.536-0.798 0-1.48-0.682-1.48-1.536 0-0.883 0.682-1.566 1.48-1.566 0.826 0.01 1.481 0.69 1.481 1.57"/>
	<path d="m55.178 173.35c0 2.221 1.054 2.62 1.822 2.62 0.513 0 1.139-0.229 1.68-0.542l0.286 0.627-2.334 1.168c-0.285 0.142-0.656 0.229-0.854 0.229-1.824 0-2.819-1.168-2.819-3.447v-8.174h-2.079l-0.114-0.283 0.826-0.798h1.367v-1.794l1.85-1.88h0.37v3.674h3.303c0.228 0.313 0.144 0.769-0.199 1.081h-3.104v7.51"/>
	<path d="m63.894 166.4c0.967-1.024 2.505-1.937 4.042-1.993 2.45-0.058 3.93 1.565 3.93 4.101v6.037c0 1.595 0.145 1.737 1.88 1.881v0.683h-6.039v-0.655c1.797-0.171 1.938-0.313 1.938-1.908v-5.184c0-2.049-0.741-3.389-2.819-3.389-1.168 0.058-2.222 0.484-2.933 1.311v7.262c0 1.595 0.142 1.737 1.879 1.908v0.655h-6.037v-0.655c1.793-0.171 1.937-0.313 1.937-1.908v-14.209c0-1.739-0.057-1.71-2.022-1.881v-0.569c1.339-0.256 3.161-0.713 4.244-0.997v9.51"/>
	<path d="m76.023 173.12c0.457 1.652 1.739 3.474 3.417 3.474 1.025 0 2.021-0.712 2.021-2.107 0-1.168-0.654-1.993-2.22-2.677-1.852-0.825-3.417-1.792-3.417-3.675 0-2.049 1.765-3.729 4.245-3.729 1.024 0 1.823 0.227 2.391 0.482 0.286 0.656 0.571 2.25 0.627 2.735l-0.682 0.172c-0.856-1.881-1.769-2.537-2.85-2.537-1.281 0-1.879 0.997-1.879 1.937 0 1.168 1.225 1.967 2.478 2.479 2.079 0.854 3.446 1.966 3.446 3.872 0 2.62-2.422 3.902-4.585 3.902-1.454 0-2.764-0.599-3.305-1.054-0.17-0.428-0.341-1.994-0.341-3.104l0.654-0.15"/>
	<path d="m85.507 171.27c0-4.784 3.702-6.863 6.294-6.863 3.616 0 6.207 2.762 6.207 6.322 0 4.441-3.302 6.719-6.179 6.719-4.017 0-6.322-3.22-6.322-6.18m9.91 0.09c0-3.161-1.366-6.096-3.957-6.096-1.91 0-3.363 1.966-3.363 4.957 0 3.616 1.567 6.378 4.045 6.378 1.765 0 3.275-1.4 3.275-5.24"/>
	<path d="m104.19 166.49c0.542-0.398 1.168-0.796 1.908-1.253 0.855-0.513 1.566-0.825 2.45-0.825 2.336 0 3.618 1.538 3.618 3.787v6.351c0 1.595 0.141 1.737 1.793 1.908v0.654h-6.037v-0.654c1.879-0.171 2.022-0.313 2.022-1.908v-5.468c0-1.652-0.542-3.075-2.649-3.075-1.112 0-2.251 0.598-3.105 1.338v7.205c0 1.595 0.144 1.737 1.823 1.908v0.654h-6.14v-0.654c1.964-0.171 2.106-0.313 2.106-1.908v-6.579c0-1.707-0.058-1.736-1.937-1.964v-0.514c1.31-0.283 2.704-0.626 4.156-1.139v2.12"/>
	<path d="m119.74 174.55c0 1.594 0.141 1.738 2.049 1.908v0.655h-6.293v-0.655c1.879-0.17 2.022-0.314 2.022-1.908v-6.579c0-1.707-0.059-1.735-1.938-1.964v-0.512c1.311-0.287 2.704-0.628 4.159-1.141v10.19m0.36-15.3c0 0.854-0.655 1.536-1.48 1.536-0.796 0-1.481-0.682-1.481-1.536 0-0.883 0.686-1.566 1.481-1.566 0.83 0.01 1.48 0.69 1.48 1.57"/>
	<path d="m131.55 177.45c-0.969-0.17-1.396-1.139-1.566-1.852-1.194 0.77-2.733 1.852-3.331 1.852-2.081 0-3.418-1.708-3.418-3.275 0-1.311 0.685-2.279 2.166-2.876 1.396-0.569 3.729-1.396 4.583-1.993v-0.969c0-1.766-0.825-2.705-2.336-2.705-1.393 0-1.993 1.195-2.306 2.392-0.085 0.343-0.34 0.541-0.653 0.541-0.456 0-1.227-0.455-1.227-0.969 0-0.368 0.343-0.769 0.969-1.224 0.686-0.512 2.365-1.597 4.385-1.965 0.8 0 1.681 0.258 2.251 0.684 0.939 0.74 1.083 1.736 1.083 2.763v6.406c0 1.055 0.369 1.538 0.796 1.538 0.229 0 0.712-0.114 1.224-0.371l0.258 0.627-2.86 1.38m-1.56-7.23c-0.626 0.258-2.336 1.025-2.874 1.31-0.998 0.542-1.481 1.111-1.481 2.137 0 1.511 1.024 2.221 1.88 2.221 0.655 0 1.706-0.511 2.476-1.109v-4.56z"/>
	<path d="m139.73 166.49c0.542-0.398 1.171-0.796 1.911-1.253 0.853-0.513 1.566-0.825 2.447-0.825 2.336 0 3.618 1.538 3.618 3.787v6.351c0 1.595 0.141 1.737 1.794 1.908v0.654h-6.038v-0.654c1.879-0.171 2.022-0.313 2.022-1.908v-5.468c0-1.652-0.542-3.075-2.649-3.075-1.109 0-2.248 0.598-3.105 1.338v7.205c0 1.595 0.144 1.737 1.823 1.908v0.654h-6.149v-0.654c1.964-0.171 2.107-0.313 2.107-1.908v-6.579c0-1.707-0.059-1.736-1.938-1.964v-0.514c1.312-0.283 2.704-0.626 4.156-1.139v2.12"/>
</g>
<path d="m107.11 146.88c38.422-15.916 56.669-59.967 40.752-98.382-15.91-38.425-59.957-56.661-98.378-40.75-38.421 15.917-56.663 59.962-40.746 98.382 15.911 38.42 59.956 56.66 98.374 40.75" fill="#007DA2"/>
<path d="m130.76 94.929c-5.636-9.681-14.536-9.793-15.628-9.763v-0.036l37.533-7.821-37.533-7.814v-0.012c0.392-0.352 7.685-6.792 18.622-6.957 8.267-0.118 15.412-10.228 10.85-17.995 0 0-1.35 12.206-16.762 8.137-10.832-2.865-17.208 3.358-17.96 4.151 0-0.005 0-0.012-0.012-0.018l21.019-32.074-32.073 21.013c-0.005-0.006-0.011-0.006-0.017-0.006 0.022-0.476 0.61-10.222 8.26-18.095 5.754-5.93 3.657-18.125-5.055-20.391 0 0 7.668 9.582-6.106 17.602-9.675 5.637-9.781 14.537-9.758 15.63h-0.023l-7.82-37.535-7.82 37.529c0 0.006-0.005 0.006-0.012 0.006-0.311-0.341-6.793-7.651-6.963-18.63-0.117-8.26-10.228-15.412-17.989-10.844 0 0 12.2 1.351 8.131 16.756-2.866 10.862 3.392 17.238 4.156 17.966 0 0 0 0.006-0.012 0.006l-32.068-21.012 17.12 26.138 3.887 5.936s0 0.005-0.006 0.011c-0.311-0.018-10.163-0.552-18.1-8.26-5.931-5.748-18.131-3.652-20.397 5.061 0 0 9.588-7.668 17.607 6.1 5.654 9.711 14.584 9.787 15.647 9.764 0 0.006-0.012 0.018-0.012 0.023l-37.528 7.814 37.529 7.821v0.006c-0.247 0.229-7.58 6.805-18.635 6.969-8.261 0.124-15.406 10.229-10.85 17.995 0 0 1.362-12.206 16.768-8.138 10.879 2.878 17.25-3.41 17.966-4.156 0.006 0.006 0.012 0.018 0.024 0.023l-21.019 32.068 32.068-21.007c-0.012 0.335-0.552 10.169-8.255 18.107-5.754 5.923-3.658 18.123 5.049 20.39 0 0-7.662-9.581 6.106-17.603 9.711-5.652 9.793-14.584 9.764-15.646 0.012 0.005 0.024 0.005 0.029 0.011l7.82 37.529 7.82-37.529v-0.006c0.282 0.312 6.799 7.633 6.964 18.642 0.123 8.261 10.227 15.406 17.994 10.845 0 0-12.205-1.351-8.132-16.763 2.865-10.851-3.387-17.226-4.156-17.966 0.013-0.006 0.019-0.012 0.029-0.018l32.069 21.013-11.091-16.933-9.923-15.142c0.44 0.023 10.21 0.599 18.095 8.262 5.93 5.747 18.131 3.657 20.397-5.056-0.02 0.02-9.6 7.68-17.62-6.081" fill="#FAC015"/>
</svg>
