<?xml version="1.0" encoding="UTF-8" standalone="no"?>
<svg width="151px" height="155px" viewBox="0 0 151 155" version="1.1" xmlns="http://www.w3.org/2000/svg" xmlns:xlink="http://www.w3.org/1999/xlink" xmlns:sketch="http://www.bohemiancoding.com/sketch/ns">
    <!-- Generator: Sketch 3.3.2 (12043) - http://www.bohemiancoding.com/sketch -->
    <title>smithsonian</title>
    <desc>Created with Sketch.</desc>
    <defs></defs>
    <g id="Page-1" stroke="none" stroke-width="1" fill="none" fill-rule="evenodd" sketch:type="MSPage">
        <g id="smithsonian" sketch:type="MSLayerGroup" transform="translate(-5.000000, -5.000000)">
            <g transform="translate(4.000000, 4.000000)" sketch:type="MSShapeGroup">
                <g id="Group" transform="translate(5.000000, 155.000000)" fill="#231F20">
                    <path d="M56.894,10.4 C57.861,9.376 59.399,8.463 60.936,8.407 C63.386,8.349 64.866,9.972 64.866,12.508 L64.866,18.545 C64.866,20.14 65.011,20.282 66.746,20.426 L66.746,21.109 L60.707,21.109 L60.707,20.454 C62.504,20.283 62.645,20.141 62.645,18.546 L62.645,13.362 C62.645,11.313 61.904,9.973 59.826,9.973 C58.658,10.031 57.604,10.457 56.893,11.284 L56.893,18.546 C56.893,20.141 57.035,20.283 58.772,20.454 L58.772,21.109 L52.735,21.109 L52.735,20.454 C54.528,20.283 54.672,20.141 54.672,18.546 L54.672,4.337 C54.672,2.598 54.615,2.627 52.65,2.456 L52.65,1.887 C53.989,1.631 55.811,1.174 56.894,0.89 L56.894,10.4" id="Shape"></path>
                </g>
                <path d="M105.11,145.88 C143.532,129.964 161.779,85.913 145.862,47.498 C129.952,9.073 85.905,-9.163 47.484,6.748 C9.063,22.665 -9.179,66.71 6.738,105.13 C22.649,143.55 66.694,161.79 105.112,145.88" id="Shape" fill="#007DA2"></path>
                <path d="M128.76,93.929 C123.124,84.248 114.224,84.136 113.132,84.166 L113.132,84.13 L150.665,76.309 L113.132,68.495 L113.132,68.483 C113.524,68.131 120.817,61.691 131.754,61.526 C140.021,61.408 147.166,51.298 142.604,43.531 C142.604,43.531 141.254,55.737 125.842,51.668 C115.01,48.803 108.634,55.026 107.882,55.819 C107.882,55.814 107.882,55.807 107.87,55.801 L128.889,23.727 L96.816,44.74 C96.811,44.734 96.805,44.734 96.799,44.734 C96.821,44.258 97.409,34.512 105.059,26.639 C110.813,20.709 108.716,8.514 100.004,6.248 C100.004,6.248 107.672,15.83 93.898,23.85 C84.223,29.487 84.117,38.387 84.14,39.48 L84.117,39.48 L76.297,1.945 L68.477,39.474 C68.477,39.48 68.472,39.48 68.465,39.48 C68.154,39.139 61.672,31.829 61.502,20.85 C61.385,12.59 51.274,5.438 43.513,10.006 C43.513,10.006 55.713,11.357 51.644,26.762 C48.778,37.624 55.036,44 55.8,44.728 C55.8,44.728 55.8,44.734 55.788,44.734 L23.72,23.722 L40.84,49.86 L44.727,55.796 C67.872,-1 44.727,55.801 44.721,55.807 C44.41,55.789 34.558,55.255 26.621,47.547 C20.69,41.799 8.49,43.895 6.224,52.608 C6.224,52.608 15.812,44.94 23.831,58.708 C29.485,68.419 38.415,68.495 39.478,68.472 C39.478,68.478 39.466,68.49 39.466,68.495 L1.938,76.309 L39.467,84.13 L39.467,84.136 C39.22,84.365 31.887,90.941 20.832,91.105 C12.571,91.229 5.426,101.334 9.982,109.1 C9.982,109.1 11.344,96.894 26.75,100.962 C37.629,103.84 44,97.552 44.716,96.806 C44.722,96.812 44.728,96.824 44.74,96.829 L23.721,128.897 L55.789,107.89 C55.777,108.225 55.237,118.059 47.534,125.997 C41.78,131.92 43.876,144.12 52.583,146.387 C52.583,146.387 44.921,136.806 58.689,128.784 C68.4,123.132 68.482,114.2 68.453,113.138 C68.465,113.143 68.477,113.143 68.482,113.149 L76.302,150.678 L84.122,113.149 L84.122,113.143 C84.404,113.455 90.921,120.776 91.086,131.785 C91.209,140.046 101.313,147.191 109.08,142.63 C109.08,142.63 96.875,141.279 100.948,125.867 C103.813,115.016 97.561,108.641 96.792,107.901 C96.805,107.895 96.811,107.889 96.821,107.883 L128.89,128.896 L117.799,111.963 L107.876,96.821 C108.316,96.844 118.086,97.42 125.971,105.083 C131.901,110.83 144.102,108.74 146.368,100.027 C146.348,100.047 136.768,107.707 128.748,93.946" id="Shape" fill="#FAC015"></path>
            </g>
        </g>
    </g>
</svg>